<svg width="84" height="79" viewBox="0 0 84 79" fill="none" xmlns="http://www.w3.org/2000/svg">
<path d="M83.096 21.2273L83.1151 21.2618C83.1329 21.3594 83.1433 21.4223 83.1433 21.4798V77.4107C83.1433 78.0691 82.5543 78.65 81.7417 78.65H1.75185C0.954528 78.65 0.350244 78.067 0.350244 77.4107V21.4798C0.350244 21.4285 0.358473 21.3729 0.372947 21.2921C0.380842 21.2709 0.385875 21.2535 0.388695 21.2432L0.397477 21.2273L0.408442 21.1875C0.415381 21.1623 0.422409 21.1399 0.431395 21.1113L0.431912 21.1097C0.439208 21.0865 0.447829 21.0591 0.456704 21.0281C0.459505 21.0212 0.462212 21.0153 0.464952 21.0097C0.469562 21.0003 0.474472 20.9912 0.483712 20.9745L0.49654 20.9512L0.503846 20.9313C0.504767 20.9297 0.506455 20.9268 0.509179 20.9226C0.517718 20.9093 0.528713 20.8941 0.54769 20.8683L0.561181 20.8499L0.565107 20.8428L0.570792 20.8359L0.571861 20.8346C0.57787 20.8273 0.588666 20.8143 0.599339 20.8002C0.60447 20.7934 0.610592 20.7851 0.617195 20.7754C0.623769 20.7672 0.629734 20.7591 0.635153 20.7512C0.639169 20.7454 0.642863 20.7397 0.646122 20.7345L17.9215 0.840143C17.9216 0.840088 17.9216 0.840033 17.9217 0.839978C18.1876 0.53531 18.6023 0.35 19.0379 0.35H64.4557C64.907 0.35 65.3048 0.534001 65.5718 0.839989C65.5719 0.84004 65.5719 0.840092 65.572 0.840143L82.8474 20.7345C82.8507 20.7397 82.8543 20.7454 82.8584 20.7512C82.8638 20.7591 82.8697 20.7672 82.8763 20.7754C82.8829 20.7851 82.889 20.7934 82.8942 20.8002C82.9049 20.8143 82.9157 20.8274 82.9217 20.8346L82.9227 20.8359L82.9284 20.8428L82.9323 20.8499L82.9458 20.8683C82.9481 20.8713 82.9511 20.876 82.9656 20.9022L82.9675 20.9057C82.9772 20.9233 82.9929 20.952 83.0141 20.9838L83.0226 21.0029L83.0234 21.0047C83.0275 21.014 83.0329 21.0263 83.0387 21.0386C83.0397 21.0408 83.0407 21.0431 83.0419 21.0455C83.0491 21.0702 83.0561 21.0922 83.0621 21.1113C83.0711 21.1399 83.0781 21.1623 83.0851 21.1875L83.096 21.2273ZM43.5072 2.81257H43.1572V3.16257V19.8905V20.2405H43.5072H78.1323H78.8998L78.3966 19.661L63.8707 2.93309L63.766 2.81257H63.6064H43.5072ZM19.9048 2.81257H19.7453L19.6407 2.93293L5.09708 19.6608L4.59312 20.2405H5.36121H40.004H40.354V19.8905V3.16257V2.81257H40.004H19.9048ZM3.50345 22.7191H3.15345V23.0691V75.8214V76.1714H3.50345H79.9901H80.3401V75.8214V23.0691V22.7191H79.9901H3.50345Z" fill="#1AB248" stroke="white" stroke-width="0.7"/>
<path d="M15.5878 38.2524H67.9235C68.7361 38.2524 69.3251 38.8333 69.3251 39.4917C69.3251 40.1501 68.7361 40.731 67.9235 40.731H15.5878C14.7752 40.731 14.1862 40.1501 14.1862 39.4917C14.1862 38.8333 14.7752 38.2524 15.5878 38.2524Z" fill="#1AB248" stroke="white" stroke-width="0.7"/>
<path d="M25.5311 49.1367H57.98C58.7926 49.1367 59.3816 49.7176 59.3816 50.3762C59.3816 51.0348 58.7926 51.6158 57.98 51.6158H25.5311C24.7186 51.6158 24.1295 51.0348 24.1295 50.3762C24.1295 49.7176 24.7186 49.1367 25.5311 49.1367Z" fill="#1AB248" stroke="white" stroke-width="0.7"/>
<path d="M25.5311 60.0213H57.98C58.7902 60.0213 59.3816 60.6162 59.3816 61.2609C59.3816 61.9194 58.7926 62.5004 57.98 62.5004H25.5311C24.7186 62.5004 24.1295 61.9194 24.1295 61.2609C24.1295 60.6023 24.7186 60.0213 25.5311 60.0213Z" fill="#1AB248" stroke="white" stroke-width="0.7"/>
</svg>
