<svg width="90" height="90" viewBox="0 0 90 90" fill="none" xmlns="http://www.w3.org/2000/svg">
<path d="M79.4061 34.6631L79.462 34.6874L79.5228 34.6879C79.7913 34.6904 80.0513 34.7835 80.2607 34.9519C80.2613 34.9523 80.2619 34.9528 80.2624 34.9532L89.2575 42.4492C89.2575 42.4492 89.2575 42.4493 89.2576 42.4493C89.5774 42.716 89.7362 43.1294 89.6771 43.5417C89.6179 43.9539 89.3491 44.306 88.9671 44.4717L88.9669 44.4718L80.8703 47.992L80.6899 48.0705V48.2672V73.3345C80.6867 73.3498 80.6836 73.3699 80.683 73.3934L80.682 73.4279L80.6888 73.4616L80.6895 73.465C80.7045 73.9553 80.4193 74.4064 79.968 74.6024L79.9679 74.6024L45.5008 89.5881L45.4959 89.5891L45.4867 89.593C45.481 89.5941 45.4733 89.5956 45.4657 89.5973C45.4515 89.6005 45.4311 89.6056 45.4079 89.6141L45.4079 89.6141L45.402 89.6164C45.2724 89.6674 45.1348 89.6952 44.9953 89.6986H44.9937C44.8542 89.6952 44.7164 89.6674 44.5869 89.6164L44.5869 89.6163L44.5816 89.6144C44.57 89.61 44.559 89.6066 44.5492 89.6038C44.5396 89.6011 44.5311 89.5991 44.5241 89.5975C44.5158 89.5956 44.5075 89.594 44.5016 89.5929L44.4912 89.5885L44.4872 89.5877L10.0378 74.6098L10.0374 74.6096C10.032 74.6051 10.0182 74.5937 10.005 74.5835C9.98903 74.5714 9.96697 74.5557 9.93951 74.5407L9.93964 74.5405L9.92835 74.5349C9.82623 74.4847 9.73165 74.4197 9.64755 74.3424C9.60513 74.2892 9.56745 74.2323 9.53485 74.1721L9.52252 74.1493L9.50647 74.129C9.46202 74.0727 9.42287 74.0124 9.38961 73.949C9.35432 73.8451 9.33335 73.7369 9.32736 73.6274L9.32575 73.5978L9.3184 73.5692C9.31078 73.5395 9.30442 73.5094 9.29934 73.4789V48.4023V48.2056L9.11895 48.1272L1.02105 44.6065C1.02101 44.6065 1.02096 44.6064 1.02092 44.6064C0.639216 44.4402 0.371015 44.0882 0.312111 43.6761C0.253189 43.2639 0.411946 42.8507 0.731647 42.5841C0.731667 42.5841 0.731687 42.5841 0.731706 42.584L9.70505 35.1062C9.71978 35.0986 9.73926 35.0874 9.76012 35.0712L9.76018 35.0713L9.76644 35.0661C9.84454 35.0021 9.93072 34.9481 10.0226 34.9058C10.0234 34.9054 10.0243 34.905 10.0251 34.9046L23.3045 29.124L23.627 28.9836L23.4375 28.6873C23.1963 28.3102 22.962 27.9414 22.7571 27.5707L22.7572 27.5707L22.7526 27.5629C17.0998 18.0211 17.3017 8.39541 23.03 3.55613C26.43 0.875931 30.8136 -0.223725 35.0762 0.534498L35.0783 0.534864C38.9923 1.20174 42.5065 3.33118 44.9095 6.49171L45.1483 6.80583L45.3871 6.49171C47.7901 3.33101 51.3043 1.20174 55.2183 0.534872L55.2204 0.534497C59.4832 -0.223202 63.8664 0.876444 67.2668 3.55629C72.9949 8.39538 73.1973 18.0208 67.5221 27.6027L67.522 27.6026L67.5177 27.6104C67.2985 28.007 67.0493 28.4027 66.7906 28.8034L66.5988 29.1005L66.9231 29.2413L79.4061 34.6631ZM80.6996 73.2971L80.699 73.2993C80.6996 73.2972 80.7 73.2958 80.6996 73.2971ZM9.73044 35.085C9.73024 35.0852 9.73004 35.0854 9.72983 35.0856L9.73044 35.085ZM24.5883 5.38251L24.5882 5.38242L24.5815 5.38805C22.1262 7.46034 20.952 10.6269 21.0096 14.3036C21.0672 17.9774 22.3527 22.1789 24.8373 26.3755C26.8623 30.0351 30.6094 33.5788 34.4788 36.5721C38.3558 39.5714 42.3844 42.0396 44.9993 43.5409L45.1487 43.6267L45.298 43.5409C47.9129 42.0397 51.9414 39.5719 55.8156 36.5778C59.682 33.5898 63.4238 30.0558 65.438 26.4151C67.9332 22.1989 69.2242 17.9876 69.2846 14.3088C69.345 10.6271 68.1708 7.46047 65.7153 5.38822L65.7154 5.38805L65.7064 5.38098C62.8508 3.15239 59.1792 2.25015 55.6159 2.90118C51.6325 3.60839 48.1736 6.05799 46.1841 9.58009C45.9487 9.91938 45.5619 10.1222 45.1485 10.1222C44.7353 10.1222 44.3487 9.9198 44.1135 9.58106C41.7604 5.33877 37.2892 2.7085 32.4375 2.71328C29.5909 2.66689 26.8165 3.61033 24.5883 5.38251ZM4.13654 42.8715L3.76261 43.1831L4.20897 43.3771L35.6257 57.0351L35.7953 57.1088L35.9373 56.9904L42.3569 51.6407L42.7307 51.3292L42.2844 51.1351L10.8697 37.4765L10.7001 37.4027L10.558 37.5211L4.13654 42.8715ZM43.3714 86.7742L43.7887 86.9594L43.7932 86.5029L44.1081 54.0028L44.1143 53.3581L43.6171 53.7686L36.7656 59.4256L36.7647 59.4264C36.4161 59.7165 35.9338 59.7854 35.5178 59.6045L12.1186 49.4313L11.699 49.2489V49.7064V72.5193V72.7143L11.8773 72.7935L43.3714 86.7742ZM44.8737 49.6448L44.9933 49.6968L45.1129 49.6448L75.8468 36.2825L76.4799 36.0072L75.8467 35.7322L65.333 31.1662L65.1259 31.0762L64.9821 31.2504C59.771 37.565 51.0389 43.0675 45.7364 46.0511L45.7359 46.0514C45.3712 46.2575 44.9252 46.2575 44.5605 46.0514L44.5601 46.0511C39.2335 43.054 30.4469 37.5153 25.2313 31.1414L25.0875 30.9657L24.8794 31.0563L14.1392 35.7307L13.5068 36.0059L14.1393 36.2809L44.8737 49.6448ZM78.6108 72.7757L78.4816 72.2002L78.2899 72.2073V49.5713V49.1137L77.8702 49.2962L54.4711 59.4697L54.471 59.4698C54.0558 59.6505 53.5739 59.5817 53.2259 59.2917L46.6863 53.843L46.1943 53.4331V54.0735V86.2131V86.668L46.6124 86.4888L78.6108 72.7757ZM54.0517 56.8556L54.1938 56.974L54.3634 56.9003L85.7787 43.2411L86.225 43.047L85.8511 42.7355L79.5381 37.4747L79.396 37.3563L79.2264 37.4301L47.8109 51.09L47.3646 51.284L47.7385 51.5956L54.0517 56.8556Z" fill="#1AB248" stroke="white" stroke-width="0.6"/>
<path d="M35.8099 7.71033L35.8095 7.71033C35.4915 7.71062 35.1864 7.58418 34.9612 7.35909C34.7362 7.13426 34.6099 6.82911 34.6101 6.51072V6.51059V5.01085C34.6101 4.34819 35.1471 3.81111 35.8098 3.81111C36.4725 3.81111 37.0095 4.34819 37.0095 5.01085V6.51059V6.51072C37.0097 6.82881 36.8833 7.13407 36.6583 7.35923C36.4335 7.5842 36.1283 7.71047 35.8099 7.71033ZM34.3101 6.51059C34.3099 6.90851 34.4677 7.29008 34.7491 7.57129C35.0305 7.8525 35.4119 8.01069 35.8098 8.01033C36.2077 8.01051 36.5893 7.85268 36.8705 7.57129C37.1517 7.2899 37.3097 6.90833 37.3095 6.51059H34.3101Z" fill="#1AB248" stroke="white" stroke-width="0.6"/>
<path d="M34.9612 11.6612L34.9613 11.6611C35.1861 11.4361 35.4913 11.3099 35.8097 11.31L35.8099 11.31C36.1283 11.3099 36.4335 11.4361 36.6583 11.6611L36.6584 11.6613C36.8834 11.8861 37.0097 12.1912 37.0095 12.5096V12.5097V14.0095C37.0095 14.6721 36.4725 15.2092 35.8098 15.2092C35.1471 15.2092 34.6101 14.6721 34.6101 14.0095L34.6101 12.5097L34.6101 12.5096C34.6099 12.1914 34.7362 11.8863 34.9612 11.6612Z" fill="#1AB248" stroke="white" stroke-width="0.6"/>
<path d="M32.8105 10.7101H31.3108C30.6481 10.7101 30.111 10.173 30.111 9.51036C30.111 8.8477 30.6481 8.31062 31.3108 8.31062H32.8105C33.4732 8.31062 34.0103 8.8477 34.0103 9.51036C34.0103 10.173 33.4732 10.7101 32.8105 10.7101Z" fill="#1AB248" stroke="white" stroke-width="0.6"/>
<path d="M40.3095 10.7101H38.8098C38.1471 10.7101 37.6101 10.173 37.6101 9.51036C37.6101 8.8477 38.1471 8.31062 38.8098 8.31062H40.3095C40.972 8.31062 41.5093 8.84772 41.5093 9.51036C41.5093 10.173 40.9722 10.7101 40.3095 10.7101Z" fill="#1AB248" stroke="white" stroke-width="0.6"/>
</svg>
