<svg width="101" height="78" viewBox="0 0 101 78" fill="none" xmlns="http://www.w3.org/2000/svg">
<path d="M100 1.67857L1.00005 1C1.00005 1 1 4.73442 1 9.32485V68.6752C1 73.2656 1 77 1 77H100C100 77 100 73.2656 100 68.6752V9.32485C100 4.73442 100 1.67857 100 1.67857ZM96.2843 68.6752C96.2843 71.2221 96.2843 73.2969 96.2843 73.2969H4.71574C4.71574 73.2969 4.71574 71.2221 4.71574 68.6752V9.32485C4.71574 6.77655 4.71574 4.39286 4.71574 4.39286L96.2843 5.07143C96.2843 5.07143 96.2843 6.77643 96.2843 9.32485V68.6752ZM37.6097 37.6426C40.4778 35.6389 42.3614 32.3254 42.3614 28.5783C42.3614 22.4733 37.3785 17.5046 31.2512 17.5046C25.1253 17.5046 20.141 22.4733 20.141 28.5783C20.141 32.1704 21.8748 35.3601 24.546 37.3838C18.9225 39.8069 14.9755 45.3858 14.9755 51.869H18.6913C18.6913 45.2108 24.1265 39.7928 30.8089 39.7928C37.4884 39.7928 42.9251 45.2108 42.9251 51.869H46.6395C46.6395 45.5976 42.9408 40.1852 37.6097 37.6426ZM31.2512 35.9461C27.1745 35.9461 23.8567 32.6412 23.8567 28.5784C23.8567 24.5141 27.1744 21.2077 31.2512 21.2077C35.3294 21.2077 38.6457 24.5141 38.6457 28.5784C38.6457 32.6412 35.3294 35.9461 31.2512 35.9461ZM56.2171 23.9494H85.7549V27.6511H56.2171V23.9494ZM56.2171 36.2945H85.7549V39.9961H56.2171V36.2945ZM56.2171 48.166H85.7549V51.8691H56.2171V48.166Z" fill="#1AB248" stroke="white" stroke-width="1.3"/>
</svg>
