<svg width="87" height="87" viewBox="0 0 87 87" fill="none" xmlns="http://www.w3.org/2000/svg">
<g clip-path="url(#clip0)">
<path d="M87 6.22827H4.21134e-05C4.21134e-05 6.22827 0 8.28008 0 10.8022V76.1982C0 78.7202 1.06855e-05 80.4092 1.06855e-05 80.4092H87C87 80.4092 87 78.7202 87 76.1982V10.8022C87 8.28008 87 6.22827 87 6.22827ZM21.604 9.1477H77.8524V12.4564H21.604V9.1477ZM15.3759 9.1477H18.6846V12.4564H15.3759V9.1477ZM9.14758 9.1477H12.4563V12.4564H9.14758V9.1477ZM2.91943 10.8022C2.91943 9.88992 2.91943 9.1477 2.91943 9.1477L6.22815 9.14787V12.4566H2.91943V10.8022ZM84.0806 76.1982C84.0806 77.1105 84.0806 77.8526 84.0806 77.8526H2.91943C2.91943 77.8526 2.91943 77.1137 2.91943 76.1982V15.376H84.0806V76.1982ZM84.0806 12.4564H80.7719V9.1477H84.0806C84.0806 9.1477 84.0806 9.88975 84.0806 10.8021V12.4564Z" fill="#1AB248" stroke="white" stroke-width="0.8"/>
<path d="M79.3124 18.6846H7.68831C6.8822 18.6846 6.22852 19.3381 6.22852 20.1444C6.22852 20.9505 6.88203 21.6042 7.68831 21.6042H79.3124C80.1185 21.6042 80.7722 20.9506 80.7722 20.1444C80.7722 19.3381 80.1185 18.6846 79.3124 18.6846Z" fill="#1AB248" stroke="white" stroke-width="0.8"/>
<path d="M37.7585 58.693C37.9488 58.693 38.1415 58.6811 38.3345 58.657L58.0804 56.1887C60.3649 55.9033 62.0874 53.952 62.0874 51.6501V38.8288C62.0874 38.0227 61.4338 37.369 60.6276 37.369H51.2853C50.4791 37.369 49.8255 38.0225 49.8255 38.8288C49.8255 39.6351 50.479 40.2886 51.2853 40.2886H59.1678V51.6503C59.1678 52.4829 58.5448 53.1886 57.7185 53.2917L37.9726 55.76C37.2093 55.8553 36.4883 55.4191 36.2183 54.6994L30.8141 40.2886H38.8286C39.6347 40.2886 40.2884 39.6351 40.2884 38.8288C40.2884 38.0225 39.6349 37.369 38.8286 37.369H29.7193L28.4967 34.1087C27.8311 32.3335 26.11 31.1409 24.2142 31.1409H21.701C20.8949 31.1409 20.2412 31.7944 20.2412 32.6007C20.2412 33.4068 20.8947 34.0605 21.701 34.0605H24.2142C24.8998 34.0605 25.5222 34.4919 25.763 35.134L33.4844 55.7247C33.6735 56.2292 33.9451 56.6808 34.2762 57.0733L32.0214 60.8315C31.706 60.7627 31.3789 60.725 31.0431 60.725C28.5212 60.725 26.4694 62.7768 26.4694 65.2987C26.4694 67.8207 28.5212 69.8725 31.0431 69.8725C33.0548 69.8725 34.766 68.5665 35.3768 66.7584H53.1795C53.7902 68.5665 55.5015 69.8725 57.5132 69.8725C60.0352 69.8725 62.087 67.8207 62.087 65.2987C62.087 62.7768 60.0352 60.725 57.5132 60.725C55.5015 60.725 53.7904 62.031 53.1795 63.8391H35.3768C35.1889 63.2825 34.8966 62.7737 34.5233 62.3358L36.7741 58.5845C37.0939 58.6548 37.423 58.693 37.7585 58.693ZM31.0438 66.9529C30.1315 66.9529 29.3895 66.2109 29.3895 65.2986C29.3895 64.3863 30.1315 63.6442 31.0438 63.6442C31.9561 63.6442 32.6982 64.3863 32.6982 65.2986C32.6982 66.2109 31.956 66.9529 31.0438 66.9529ZM57.5136 63.6442C58.4259 63.6442 59.1679 64.3863 59.1679 65.2986C59.1679 66.2109 58.4259 66.9529 57.5136 66.9529C56.6013 66.9529 55.8592 66.2109 55.8592 65.2986C55.8592 64.3864 56.6013 63.6442 57.5136 63.6442Z" fill="#1AB248" stroke="white" stroke-width="0.8"/>
<path d="M50.7599 44.0249C50.1898 43.4548 49.2656 43.4548 48.6957 44.0249L46.5164 46.2041V29.4865C46.5164 28.6804 45.8629 28.0267 45.0566 28.0267C44.2505 28.0267 43.5968 28.6803 43.5968 29.4865V46.2041L41.4176 44.0249C40.8475 43.4548 39.9233 43.4548 39.3533 44.0249C38.7833 44.595 38.7833 45.519 39.3533 46.0891L44.0245 50.7602C44.3095 51.0452 44.6831 51.1878 45.0566 51.1878C45.4301 51.1878 45.8038 51.0454 46.0887 50.7602L50.7599 46.0891C51.33 45.5192 51.33 44.595 50.7599 44.0249Z" fill="#1AB248" stroke="white" stroke-width="0.8"/>
</g>
<defs>
<clipPath id="clip0">
<rect width="87" height="87" fill="white"/>
</clipPath>
</defs>
</svg>
